<?xml version="1.0" encoding="utf-8"?>
<!-- Generator: Adobe Illustrator 23.0.6, SVG Export Plug-In . SVG Version: 6.00 Build 0)  -->
<svg version="1.1" id="Layer_1" xmlns="http://www.w3.org/2000/svg" xmlns:xlink="http://www.w3.org/1999/xlink" x="0px" y="0px"
	 viewBox="0 0 519.01 153.05" style="enable-background:new 0 0 519.01 153.05;" xml:space="preserve">
<style type="text/css">
	.st0{fill:#E31D13;}
	.st1{fill:#353087;}
</style>
<g>
	<path class="st0" d="M153.56,112.56l-1.78,8.38c5.17-0.73,10.35-1.43,15.53-2.1l5.95-28.86c-5.28,1.39-10.55,2.81-15.81,4.28
		L153.56,112.56z M0,152.93c16.24-4.83,32.65-9.23,49.33-13.15l2.17-10.21c-1.2,0.48-2.41,0.95-3.61,1.43
		C31.73,137.47,15.37,144.34,0,152.93z M288.52,73.33l1.85-8.97c-2.01,0.34-4.02,0.7-6.03,1.05L288.52,73.33z M507.01,48.15
		c-28.11,0-56.12,0.6-84.04,2.03c-19.67,1.01-39.3,2.43-58.89,4.36c-4.68,0.46-9.36,0.95-14.03,1.47l-10.19,47.94
		c4.72-0.25,9.45-0.48,14.17-0.69c19.32-0.87,38.65-1.42,57.98-1.52c4.26-0.02,8.51-0.03,12.77-0.01c13.73,0.08,52.73,0,83.27-0.06
		h0.38l10.57-53.52C511.9,48.15,507.01,48.15,507.01,48.15z M226.26,112.28c7.76-0.74,15.53-1.44,23.3-2.09L233.2,79.6
		L226.26,112.28z"/>
	<path class="st1" d="M412.01,101.74c-19.33,0.1-38.66,0.65-57.98,1.52l-10.24,49.67h118.52l8.03-38.93L409.41,114L412.01,101.74z
		 M118.81,1.23c0.11-0.52,0.19-0.94,0.25-1.23C119,0.3,118.92,0.71,118.81,1.23z M119.17,0c0,0-0.02,0.07-0.04,0.21
		c-0.02,0.09-0.04,0.2-0.07,0.33c-0.06,0.29-0.15,0.71-0.25,1.23c-0.18,0.89-0.43,2.11-0.74,3.57
		c-2.96,14.35-11.17,54.17-15.29,74.12c-0.22,1.06-0.43,2.06-0.62,3c0.01-0.06,0.02-0.11,0.04-0.17c-0.02,0.09-0.04,0.18-0.06,0.27
		c-0.01,0.03-0.01,0.05-0.02,0.08c-0.29,1.41-0.55,2.69-0.78,3.78c-0.04,0.21-0.09,0.41-0.13,0.61c-0.04,0.21-0.09,0.42-0.13,0.62
		c-0.08,0.38-0.15,0.74-0.22,1.06c-0.01,0.06-0.02,0.12-0.04,0.18c-0.1,0.46-0.18,0.86-0.25,1.19c-0.12,0.58-0.19,0.94-0.22,1.05
		c-1.72,8.35-4.16,14.02-13.03,16.16H81.9h-5.44H75.5l-19.27,0l-4.73,22.26l-2.17,10.21l-1.14,5.37l-1.4,6.57l-0.16,0.77l0.14,0
		l-0.11,0.56h36.2v-0.13h23.97c0.36-0.05,0.72-0.1,1.07-0.15h0c24.27-3.83,38.13-16.22,43.31-29.12l0.58-2.72l1.78-8.38l3.89-18.3
		L177.48,0H119.17z M433.63,0.01l0-0.01h-58.3l-11.25,54.54c19.59-1.93,39.22-3.35,58.89-4.36l2.34-10.99h60.46l8.08-39.18
		L433.63,0.01z M361.95,0h-58.3l-13.27,64.36l-1.85,8.97l-4.18-7.92l-34.3-65.03L249.84,0h-58.02l-18.56,89.98l-5.95,28.86
		l-7.03,34.09h57.35l8.64-40.65l6.94-32.68l16.35,30.59l22.63,42.33l0.22,0.41h57.04l10.41-48.98l10.19-47.94L361.95,0z"/>
</g>
</svg>
